<?xml version="1.0"?>
<svg xmlns="http://www.w3.org/2000/svg" width="512" height="512" viewBox="0 0 512 512" fill="none">
<path d="M507.476 4.39175C501.622 -1.46325 492.129 -1.46325 486.274 4.39175L289.725 200.941C252.874 171.862 199.303 173.995 164.909 207.342L6.44477 319.82C-1.14235 325.206 -2.0219 336.104 4.52176 342.647L169.486 507.611C176.218 514.344 187.456 513.169 192.65 505.192L299.341 341.355C330.657 308.854 334.25 259.371 310.081 222.989L507.476 25.5939C513.331 19.7389 513.331 10.2468 507.476 4.39175V4.39175ZM230.972 210.539C281.737 210.539 312.926 266.397 286.278 309.609L196.857 220.188C207.009 213.902 218.732 210.539 230.972 210.539V210.539ZM177.613 473.334L153.266 448.986L196.51 384.124C201.103 377.235 199.241 367.927 192.352 363.334C185.464 358.74 176.155 360.602 171.561 367.492L131.644 427.365L38.2755 333.997L172.786 238.522L268.316 334.052L177.613 473.334Z" fill="white"/>
</svg>
