<?xml version="1.0"?>
<svg xmlns="http://www.w3.org/2000/svg" width="569" height="569" viewBox="0 0 569 569" fill="none">
<g clip-path="url(#clip0)">
<path d="M540.442 256H312.89V28.4427C312.89 12.7453 300.145 0 284.442 0C268.745 0 256 12.7453 256 28.4427V256H28.4427C12.7453 256 0 268.745 0 284.442C0 300.145 12.7453 312.89 28.4427 312.89H256V540.442C256 556.145 268.745 568.89 284.442 568.89C300.145 568.89 312.89 556.145 312.89 540.442V312.89H540.442C556.145 312.89 568.89 300.145 568.89 284.442C568.89 268.745 556.145 256 540.442 256Z" fill="white"/>
</g>
<defs>
<clipPath id="clip0">
<rect width="568.889" height="568.889" fill="white"/>
</clipPath>
</defs>
</svg>
